<svg width="26" height="26" viewBox="0 0 26 26" fill="none" xmlns="http://www.w3.org/2000/svg">
<g id="Icon">
<path fill-rule="evenodd" clip-rule="evenodd" d="M6.89204 4.00002C7.44433 4.00002 7.89204 4.44774 7.89204 5.00002C7.89204 5.55231 7.44433 6.00002 6.89204 6.00002H4.78955C4.25769 6.00002 3.81888 6.41634 3.79093 6.94746L3.00146 21.9475C2.97243 22.499 3.39599 22.9696 4.00008 23H21.8103C22.3626 23 22.8103 22.5523 22.8089 21.9475L22.0195 6.94744C21.9915 6.41632 21.5527 6 21.0208 6H18.892C18.3398 6 17.892 5.55228 17.892 5C17.892 4.44772 18.3398 4 18.892 4H21.0208C22.6164 4 23.9328 5.24895 24.0167 6.84232L24.8062 21.8423C24.8096 21.9211 24.8096 21.9211 24.8103 22C24.8103 23.6569 23.4672 25 21.8103 25H4.00008C3.9212 24.9993 3.9212 24.9993 3.8424 24.9959C2.18783 24.9088 0.917139 23.4969 1.00422 21.8423L1.7937 6.84235C1.87756 5.24897 3.19397 4.00002 4.78955 4.00002H6.89204ZM10.892 6C10.892 6.55228 10.4443 7 9.89204 7C9.33976 7 8.89204 6.55228 8.89204 6V4C8.89204 2.34315 10.2352 1 11.892 1H13.892C15.5489 1 16.892 2.34315 16.892 4V6C16.892 6.55228 16.4443 7 15.892 7C15.3398 7 14.892 6.55228 14.892 6V4C14.892 3.44772 14.4443 3 13.892 3H11.892C11.3398 3 10.892 3.44772 10.892 4V6Z" fill="black"/>
<path d="M4.78955 6.00002V5.50002V6.00002ZM3.79093 6.94746L3.29162 6.92118L3.79093 6.94746ZM3.00146 21.9475L3.50077 21.9737L3.00146 21.9475ZM4.00008 23L3.97494 23.4994L3.9875 23.5H4.00008V23ZM22.8089 21.9475L23.3089 21.9463L23.3089 21.9337L23.3082 21.9212L22.8089 21.9475ZM22.0195 6.94744L21.5201 6.97372L22.0195 6.94744ZM18.892 4V3.5V4ZM24.0167 6.84232L23.5174 6.8686L24.0167 6.84232ZM24.8062 21.8423L25.3057 21.8204L25.3055 21.8161L24.8062 21.8423ZM24.8103 22H25.3103L25.3103 21.9956L24.8103 22ZM4.00008 25L3.99569 25.5H4.00008V25ZM3.8424 24.9959L3.81612 25.4952L3.8205 25.4954L3.8424 24.9959ZM1.00422 21.8423L0.504913 21.8161L1.00422 21.8423ZM1.7937 6.84235L2.293 6.86862L1.7937 6.84235ZM4.78955 4.00002V3.50002V4.00002ZM6.89204 4.50002C7.16819 4.50002 7.39204 4.72388 7.39204 5.00002H8.39204C8.39204 4.17159 7.72047 3.50002 6.89204 3.50002V4.50002ZM7.39204 5.00002C7.39204 5.27616 7.16819 5.50002 6.89204 5.50002V6.50002C7.72047 6.50002 8.39204 5.82845 8.39204 5.00002H7.39204ZM6.89204 5.50002H4.78955V6.50002H6.89204V5.50002ZM4.78955 5.50002C3.99176 5.50002 3.33355 6.1245 3.29162 6.92118L4.29024 6.97374C4.30422 6.70818 4.52362 6.50002 4.78955 6.50002V5.50002ZM3.29162 6.92118L2.50215 21.9212L3.50077 21.9737L4.29024 6.97374L3.29162 6.92118ZM2.50215 21.9212C2.45774 22.7649 3.11093 23.4559 3.97494 23.4994L4.02521 22.5007C3.68106 22.4833 3.48712 22.233 3.50077 21.9737L2.50215 21.9212ZM4.00008 23.5H21.8103V22.5H4.00008V23.5ZM21.8103 23.5C22.6552 23.5 23.3109 22.8114 23.3089 21.9463L22.3089 21.9486C22.3097 22.2932 22.0699 22.5 21.8103 22.5V23.5ZM23.3082 21.9212L22.5188 6.92116L21.5201 6.97372L22.3096 21.9737L23.3082 21.9212ZM22.5188 6.92116C22.4768 6.12448 21.8186 5.5 21.0208 5.5V6.5C21.2868 6.5 21.5062 6.70816 21.5201 6.97372L22.5188 6.92116ZM21.0208 5.5H18.892V6.5H21.0208V5.5ZM18.892 5.5C18.6159 5.5 18.392 5.27614 18.392 5H17.392C17.392 5.82843 18.0636 6.5 18.892 6.5V5.5ZM18.392 5C18.392 4.72386 18.6159 4.5 18.892 4.5V3.5C18.0636 3.5 17.392 4.17157 17.392 5H18.392ZM18.892 4.5H21.0208V3.5H18.892V4.5ZM21.0208 4.5C22.3505 4.5 23.4475 5.54079 23.5174 6.8686L24.516 6.81604C24.4182 4.95711 22.8823 3.5 21.0208 3.5V4.5ZM23.5174 6.8686L24.3069 21.8686L25.3055 21.8161L24.516 6.81604L23.5174 6.8686ZM24.3066 21.8642C24.3084 21.9053 24.3091 21.92 24.3094 21.9343C24.3098 21.9486 24.31 21.9633 24.3103 22.0044L25.3103 21.9956C25.31 21.9578 25.3098 21.9331 25.3091 21.908C25.3084 21.8829 25.3073 21.8582 25.3057 21.8204L24.3066 21.8642ZM24.3103 22C24.3103 23.3807 23.191 24.5 21.8103 24.5V25.5C23.7433 25.5 25.3103 23.933 25.3103 22H24.3103ZM21.8103 24.5H4.00008V25.5H21.8103V24.5ZM4.00446 24.5C3.96338 24.4997 3.94869 24.4995 3.93435 24.4992C3.92002 24.4988 3.90534 24.4982 3.8643 24.4964L3.8205 25.4954C3.85826 25.4971 3.88298 25.4982 3.90806 25.4988C3.93315 25.4995 3.95789 25.4997 3.99569 25.5L4.00446 24.5ZM3.86868 24.4966C2.48987 24.424 1.43096 23.2474 1.50353 21.8686L0.504913 21.8161C0.403317 23.7464 1.88579 25.3936 3.81612 25.4952L3.86868 24.4966ZM1.50353 21.8686L2.293 6.86862L1.29439 6.81607L0.504913 21.8161L1.50353 21.8686ZM2.293 6.86862C2.36289 5.54081 3.4599 4.50002 4.78955 4.50002V3.50002C2.92804 3.50002 1.39223 4.95713 1.29439 6.81607L2.293 6.86862ZM4.78955 4.50002H6.89204V3.50002H4.78955V4.50002ZM10.392 6C10.392 6.27614 10.1682 6.5 9.89204 6.5V7.5C10.7205 7.5 11.392 6.82843 11.392 6H10.392ZM9.89204 6.5C9.6159 6.5 9.39204 6.27614 9.39204 6H8.39204C8.39204 6.82843 9.06362 7.5 9.89204 7.5V6.5ZM9.39204 6V4H8.39204V6H9.39204ZM9.39204 4C9.39204 2.61929 10.5113 1.5 11.892 1.5V0.5C9.95905 0.5 8.39204 2.067 8.39204 4H9.39204ZM11.892 1.5H13.892V0.5H11.892V1.5ZM13.892 1.5C15.2728 1.5 16.392 2.61929 16.392 4H17.392C17.392 2.067 15.825 0.5 13.892 0.5V1.5ZM16.392 4V6H17.392V4H16.392ZM16.392 6C16.392 6.27614 16.1682 6.5 15.892 6.5V7.5C16.7205 7.5 17.392 6.82843 17.392 6H16.392ZM15.892 6.5C15.6159 6.5 15.392 6.27614 15.392 6H14.392C14.392 6.82843 15.0636 7.5 15.892 7.5V6.5ZM15.392 6V4H14.392V6H15.392ZM15.392 4C15.392 3.17157 14.7205 2.5 13.892 2.5V3.5C14.1682 3.5 14.392 3.72386 14.392 4H15.392ZM13.892 2.5H11.892V3.5H13.892V2.5ZM11.892 2.5C11.0636 2.5 10.392 3.17157 10.392 4H11.392C11.392 3.72386 11.6159 3.5 11.892 3.5V2.5ZM10.392 4V6H11.392V4H10.392Z" fill="black"/>
</g>
</svg>
